<?xml version="1.0" standalone="no"?>
<!DOCTYPE svg PUBLIC "-//W3C//DTD SVG 20010904//EN"
 "http://www.w3.org/TR/2001/REC-SVG-20010904/DTD/svg10.dtd">
<svg version="1.0" xmlns="http://www.w3.org/2000/svg"
 width="500.000000pt" height="300.000000pt" viewBox="0 0 500.000000 300.000000"
 preserveAspectRatio="xMidYMid meet">

<g transform="translate(0.000000,300.000000) scale(0.100000,-0.100000)"
fill="#000000" stroke="none">
<path d="M130 1665 l0 -1175 540 0 540 0 0 1175 0 1175 -540 0 -540 0 0 -1175z
m763 954 c86 -23 136 -104 123 -198 -8 -61 -39 -106 -91 -131 -41 -20 -56 -21
-298 -18 -242 3 -257 4 -284 24 -80 60 -96 204 -30 279 40 47 83 54 322 55
124 0 236 -5 258 -11z m-473 -424 l0 -45 295 0 295 0 0 -75 0 -75 -295 0 -295
0 0 -45 0 -45 -70 0 -70 0 0 165 0 165 70 0 70 0 0 -45z m473 -326 c86 -23
136 -104 123 -198 -8 -61 -39 -106 -91 -131 -41 -20 -56 -21 -298 -18 -242 3
-257 4 -284 24 -80 60 -96 204 -30 279 40 47 83 54 322 55 124 0 236 -5 258
-11z m117 -484 l0 -75 -165 0 -165 0 0 -30 0 -30 165 0 165 0 0 -75 0 -75
-365 0 -365 0 0 75 0 75 130 0 130 0 0 30 0 30 -130 0 -130 0 0 75 0 75 365 0
365 0 0 -75z m-363 -355 c51 -22 66 -48 73 -125 l5 -60 143 -3 142 -3 0 -69 0
-70 -365 0 -365 0 0 123 c0 138 12 172 71 203 72 37 216 39 296 4z"/>
<path d="M423 2473 c-23 -9 -14 -43 13 -53 33 -13 385 -13 418 0 29 11 35 44
10 54 -19 7 -423 7 -441 -1z"/>
<path d="M423 1723 c-23 -9 -14 -43 13 -53 33 -13 385 -13 418 0 29 11 35 44
10 54 -19 7 -423 7 -441 -1z"/>
<path d="M444 901 c-24 -11 -39 -40 -26 -53 12 -12 165 -5 169 7 2 6 -3 19
-10 29 -16 21 -99 32 -133 17z"/>
<path d="M1390 1660 l0 -1130 455 0 455 0 0 190 0 190 -230 0 -230 0 -2 938
-3 937 -222 3 -223 2 0 -1130z"/>
<path d="M2586 2768 c-3 -13 -50 -500 -106 -1083 -56 -583 -104 -1081 -107
-1107 l-6 -48 220 0 220 0 7 108 c3 59 9 140 13 180 l6 72 138 0 c126 0 139
-2 139 -17 0 -21 17 -216 26 -291 l5 -52 210 0 209 0 0 29 c0 16 -47 523 -105
1127 -58 604 -105 1100 -105 1101 0 2 -171 3 -380 3 l-380 0 -4 -22z m436
-914 c26 -296 47 -554 47 -571 l1 -33 -100 0 -100 0 0 28 c0 15 18 270 40 567
22 297 40 544 40 548 0 5 6 7 12 5 9 -3 26 -159 60 -544z"/>
<path d="M3705 2779 c-3 -8 -4 -516 -3 -1129 l3 -1115 330 -3 c365 -3 427 3
521 48 76 37 126 91 170 184 60 126 78 231 78 466 1 128 -4 224 -11 256 -35
148 -90 230 -183 274 l-50 24 47 24 c85 42 132 103 161 209 24 90 20 363 -7
467 -43 164 -119 241 -281 284 -80 21 -767 31 -775 11z m580 -349 c48 -18 57
-64 53 -249 -3 -131 -7 -173 -20 -197 -21 -39 -34 -44 -114 -44 l-64 0 0 243
c0 134 3 247 7 250 10 11 108 8 138 -3z m9 -862 c14 -6 36 -32 48 -57 22 -43
23 -58 23 -261 0 -198 -2 -218 -20 -250 -28 -48 -70 -69 -140 -72 l-60 -3 -3
328 -2 327 64 0 c36 0 76 -5 90 -12z"/>
<path d="M1021 210 c-12 -44 -24 -87 -28 -95 -4 -11 2 -15 20 -15 17 0 28 7
32 20 9 28 70 28 78 0 6 -22 47 -29 47 -7 0 6 -11 48 -24 92 l-23 80 -40 3
-40 3 -22 -81z m78 -12 c1 -12 -6 -18 -19 -18 -17 0 -19 4 -14 28 4 15 9 31
12 36 6 11 20 -20 21 -46z"/>
<path d="M1350 270 c0 -11 5 -20 10 -20 6 0 10 -24 10 -54 0 -30 -4 -58 -10
-61 -5 -3 -10 -13 -10 -21 0 -10 12 -14 45 -14 38 0 45 3 45 20 0 11 -4 20
-10 20 -5 0 -10 25 -10 55 0 30 5 55 10 55 6 0 10 9 10 20 0 17 -7 20 -45 20
-38 0 -45 -3 -45 -20z"/>
<path d="M1860 195 c0 -87 2 -95 19 -95 14 0 21 8 23 28 3 24 8 27 43 30 53 5
65 17 65 68 0 53 -16 64 -94 64 l-56 0 0 -95z m100 29 c0 -22 -4 -25 -27 -22
-20 2 -29 9 -31 26 -3 19 1 22 27 22 27 0 31 -4 31 -26z"/>
<path d="M3947 283 c-4 -3 -7 -17 -7 -30 0 -19 -5 -23 -33 -23 -43 0 -57 -15
-57 -60 0 -51 23 -68 88 -68 l52 0 0 94 c0 84 -2 94 -18 94 -10 0 -22 -3 -25
-7z m-19 -82 c19 -12 11 -65 -10 -69 -15 -3 -18 4 -18 37 0 42 5 47 28 32z"/>
<path d="M2202 218 c-19 -19 -15 -82 6 -101 22 -20 92 -23 110 -5 7 7 12 30
12 53 0 23 -5 46 -12 53 -16 16 -100 16 -116 0z m78 -48 c0 -33 -3 -40 -20
-40 -16 0 -20 7 -20 33 0 36 6 47 27 47 9 0 13 -13 13 -40z"/>
<path d="M2516 203 c21 -85 29 -98 67 -101 30 -3 36 0 40 20 l4 23 8 -23 c6
-19 14 -23 43 -20 34 3 36 5 53 66 l17 62 -29 0 c-25 0 -29 -4 -30 -27 0 -16
-4 -37 -8 -47 -7 -18 -8 -18 -14 5 -4 13 -7 34 -7 47 0 18 -6 22 -29 22 -27 0
-29 -4 -36 -47 -8 -50 -16 -45 -29 20 -5 21 -12 27 -31 27 -23 0 -25 -3 -19
-27z"/>
<path d="M2942 218 c-17 -17 -15 -93 2 -107 18 -15 108 -10 113 6 3 7 -10 13
-33 15 -53 4 -57 28 -5 28 36 0 41 3 41 23 0 34 -19 47 -65 47 -23 0 -46 -5
-53 -12z m68 -23 c0 -8 -7 -15 -15 -15 -8 0 -15 7 -15 15 0 8 7 15 15 15 8 0
15 -7 15 -15z"/>
<path d="M3252 167 c3 -56 5 -62 26 -65 20 -3 22 1 22 42 0 42 2 46 25 46 18
0 25 5 25 19 0 16 -8 19 -50 19 l-51 1 3 -62z"/>
<path d="M3542 218 c-19 -19 -15 -82 6 -101 24 -22 112 -24 112 -3 0 10 -13
16 -37 18 -52 4 -56 28 -4 28 36 0 41 3 41 23 0 34 -19 47 -65 47 -23 0 -46
-5 -53 -12z m76 -25 c2 -8 -5 -13 -17 -13 -12 0 -21 6 -21 16 0 18 31 15 38
-3z"/>
</g>
</svg>
